<?xml version="1.0" encoding="UTF-8"?>
<svg id="Layer_1" xmlns="http://www.w3.org/2000/svg" version="1.1" viewBox="0 0 790 149.08">
  <!-- Generator: Adobe Illustrator 29.7.1, SVG Export Plug-In . SVG Version: 2.1.1 Build 8)  -->
  <defs>
    <style>
      .st0 {
        font-family: TimesNewRomanPS-BoldMT, 'Times New Roman';
        font-size: 42px;
        font-weight: 700;
      }

      .st1 {
        fill: #e5e5e5;
        stroke: #231f20;
        stroke-miterlimit: 10;
        stroke-width: 2px;
      }

      .st2 {
        fill: #231f20;
      }

      .st3 {
        font-family: TimesNewRomanPSMT, 'Times New Roman';
        font-size: 75px;
      }
    </style>
  </defs>
  <rect class="st1" x="1" y="1.04" width="788" height="147"/>
  <path class="st2" d="M197.96,96.1v2.74s.88-.83,1.25-1.19.22-.23-1.83,1.68c-4.11,3.82-5.77,3.52-5.77,3.52l-3.42,3.33-2.35,3.13s.39.78-1.57,1.86-9.98,0-9.98,0l-3.23.98s-.29.2-1.86,1.27-.29,2.74-2.93,1.57-2.25-1.47-2.25-1.47c0,0,.49-2.84-.59-4.11s-3.91-4.21-3.91-4.21l-7.43-4.4-6.65-3.23s-.2-.78-3.82-2.15-4.01-3.23-7.73-3.23h-11.05l-5.58,1.66s-4.6,1.76-7.63,3.72,1.37-1.66-4.7,3.62-3.13,3.91-9.68,7.14.88,1.86-8.61,3.33-2.05.98-13.01,1.47-12.42,1.39-11.05,2.26-.98-.01,3.52,1.65-.2.29,5.58,2.35,4.79,1.47,6.95,2.35,3.13.49,2.84,1.76-.78,1.86-2.05,2.45.29,0-2.84,1.08-.1.88-4.4,1.76,0-1.27-4.7,0-3.03.88-5.97,2.15-5.28.78-5.28.78c0,0-1.86-1.47-2.05-2.64s0-16.14,0-16.14c0,0,0-3.33-3.62-3.03s-7.63-1.08-7.63-1.08c0,0,2.84-1.86-1.17.59s-4.99,4.4-9,5.48-8.02-2.35-8.02-2.35c0,0,.59,1.27-1.57-1.76s.98-5.58.98-5.58l6.65-6.16,6.95-3.52s.68.59,1.57-.98,1.27-4.89.59-6.36-.29-1.76-1.96-.78-4.79,1.76-7.63,3.33.98-3.23-4.5,2.93-5.09,6.16-7.73,7.73-2.74-.88-2.74-.88c0,0-.98,1.37-3.23,3.42s-1.27,2.25-3.42,3.42-4.79,2.16-5.28,1.96-.49-6.56-.49-6.56c0,0-.2-.2,2.93-4.01s2.74-3.23,5.77-5.97,2.15-2.74,3.13-7.73.88-7.53,1.76-8.8,1.96-1.47,2.54-3.33-1.57-1.37.78-4.4,3.23-3.33,4.7-5.87,4.4-5.28,5.77-8.22,1.86-3.52,3.72-7.43,2.15-4.89,4.6-8.8,7.92-7.14,10.08-7.92,0-.2,4.4-3.42,3.62-1.57,7.73-4.4,5.09-2.64,7.53-4.7,3.82-2.74,6.07-3.91,6.55-2.84,9.68-3.33,3.82-.68,6.36-1.27,4.7-1.37,8.02-1.76,5.28-.68,9.98-.78,13.99,1.17,16.14,2.45,2.84,1.76,5.28,3.62,2.45,2.45,4.89,3.62-.78,1.76,3.42-.1,1.76.29,4.89-2.93,1.86-3.91,4.4-5.48,1.86-1.76,4.7-2.93,2.54-1.17,6.26-1.47,2.45-.29,5.97,0,1.96-.49,5.77.49,1.17-.68,4.5,1.17,2.64.78,4.6,2.93,1.17.1,3.13,2.45,1.96.78,3.03,2.45-.2,1.66,2.35,1.66,1.17.2,5.09-.29-.2-.39,5.58-.88,2.84-1.17,7.83-.78,3.62-.88,7.63.59,9.49,4.4,9.49,4.4c0,0-1.27-2.93,2.05,3.62s7.24,10.86,7.24,10.86c0,0,2.35-.68,3.72-.29s5.77-.29,6.36,1.27-1.86,4.89-1.86,4.89c0,0,0,2.15-3.72,1.96s-9.2-1.76-9.2-1.76c0,0-3.52.68-6.26,1.08s-5.77,1.96-5.77.1,2.35-3.52-.29-5.58-6.07-5.67-6.07-5.67c0,0-.98-1.96-2.25-4.21s-3.72-4.6-4.7-4.6-2.45-1.08-3.03.29.1,4.11.1,4.11c0,0,.78-.2,1.37.59s1.96,3.52,1.37,4.5-1.08,1.47-1.76,3.62,1.76,5.38.29,5.67-3.33,0-4.01-.2.78.39-2.54-1.08-11.25-4.89-11.25-4.89c0,0-5.38-2.74-7.43-4.4s-3.23-2.15-5.48-3.52-4.99-1.76-4.99-1.76c0,0-1.76,1.17-1.17,2.64s1.27,7.53,1.27,7.53c0,0,.1,2.93-.29,4.5s-.59,4.11-1.27,5.38-2.74,6.55-2.74,6.55c0,0-.88,2.74-2.45,4.4s-2.05,2.35-4.01,4.01-1.66,2.15-4.3,2.93-.88,1.37-4.3,1.86-3.72,1.66-3.72,1.66c0,0-.1,12.62,0,14.38s1.96,5.67,1.96,5.67c0,0-1.17.2,1.27,2.45s2.93,1.37,6.75,4.5,7.73,5.18,7.73,5.18l3.72,2.64,3.42,1.76s-1.66.2,1.47,1.08,9.59.49,9.59.49c0,0,.98-.68,3.13-1.96s15.65-4.4,15.65-4.4c0,0,.78-1.08,1.96-.68s.64,2.47.64,2.47"/>
  <text transform="translate(242.85 62.46) scale(1.06 1)"><tspan class="st0"><tspan x="0" y="0">The</tspan></tspan><tspan class="st3"><tspan x="0" y="65">Galloping Goose</tspan></tspan></text>
</svg>