<?xml version="1.0" encoding="UTF-8"?>
<svg id="Layer_1" xmlns="http://www.w3.org/2000/svg" version="1.1" viewBox="0 0 1173.91 1080">
  <!-- Generator: Adobe Illustrator 30.0.0, SVG Export Plug-In . SVG Version: 2.1.1 Build 123)  -->
  <defs>
    <style>
      .st0 {
        fill: #fff;
      }

      .st1 {
        fill: none;
      }
    </style>
  </defs>
  <path class="st1" d="M794.81,836.51l-.56,4.72c-.14.61-.34,1.51-.55,2.6-.48,2.54-.62,4.16-.9,6.64-.44,3.89-.66,5.84-.93,7.24-.22,1.17-.78,3.91-.7,6.66,0,.12.02.55.06,1.11.14,1.85.24,3.1.78,4.21.41.84,1.08,1.39,2.42,2.49.28.23.95.77,3.36,2.27.73.46,1.7,1.05,2.93,1.77,2.45,1.43,3.78,2.21,5.56,2.98.31.13.61.27.92.4.92.39,2.85,1.18,3.27,1.9.06.11.12.23.12.23.11.23.19.47.27.82.11.5.16.96.18,1.28-.05.89-.14,3.1.12,4.83.06.41.13.73.23,1.05.33,1.06.83,1.78,1.05,2.09.88,1.25,1.68,2.55,2.53,3.82.99,1.48,1.72,2.67,2.13,3.34.21.35.74,1.22,1.66,2.82,1.31,2.29,1.87,3.36,2.41,4.32.81,1.43,2.07,3.47,3.97,5.88,1.14,1.71,2.3,3.5,3.45,5.37,1.09,1.77,2.11,3.51,3.07,5.21.74,1.92,1.75,3.08,2.38,3.68.63.61,1.09.86,1.26.95,1.29.68,2.57.62,3.22.54,1.84-.04,3.34-.02,4.35,0,1.99.05,3.57.14,5.94,0,.79-.05.99,0,1.3-.1,1.18-.34,1.71-1.27,3.29-3.71,1.04-1.6,1.56-2.4,2.24-3.35,1.15-1.61,1.35-1.68,2.18-2.84,1.36-1.92,1.44-2.6,2.73-4.79,1.12-1.92,1.28-1.77,3.22-4.63,1.07-1.59,1.13-1.8,3.61-5.81,2.44-3.96,3.66-5.94,3.9-6.26,1.9-2.57,3.35-3.91,3.84-6.54.17-.9.17-1.67.15-2.19,0-1.87,0-3.74.01-5.61.23-.17.56-.41.95-.68.67-.46,1.73-1.15,3.29-1.97,1.49-.78,2.98-1.42,5.96-2.69.36-.15.53-.23.81-.35,1.39-.65,2.42-1.33,3.5-2.1,2.46-1.76,3.68-2.64,4.34-3.69.61-.98.88-1.92,1.02-2.53v-10.36c-.27-1-.64-2.52-.95-4.39-.14-.83-.21-1.38-.37-2.6,0,0-.37-2.88-.88-6.8-.11-.87-.27-2.87-.76-5.45-.44-2.31-.75-3.88-1.3-3.91-.75-.05-1.52,2.82-1.68,3.39-.36,1.33-.46,2.47-.49,3.23-.17.82-.43,2.13-.75,3.74-.59,3.02-.76,4.09-1.21,6.02-.67,2.84-1.1,3.92-1.55,4.84-.96,1.94-1.75,2.56-2.02,2.75-.36.26-.71.44-2.95,1.24-1.51.53-2.26.8-2.85.98-1.98.6-2.23.5-5.89,1.32-2.61.59-2.79.71-3.36.54-.83-.24-1.09-.69-3.46-2.16-.15-.09-.79-.49-1.14-.68-1.04-.58-2.79-1.18-5.71-.88-4.57.11-8.32.06-10.91,0-.32,0-9.58-.23-17.04,0-.15,0-3,.11-6.41.95-2.14.53-3.13,1.02-3.8,1.42-1.31.77-1.49,1.24-2.32,1.57-.96.37-2.56.45-5.2-1.2-2.18-.5-5.87-1.47-8.23-2.96-.36-.23-.6-.41-.76-.54-1.64-1.33-2.34-3.09-2.8-4.49-.63-1.89-.81-3.08-1.35-5.82-1-5.18-.87-3.7-1.65-7.8-.69-3.6-.9-5.31-1.43-5.34-.42-.02-.83,1.03-1.14,2.03Z"/>
  <path class="st0" d="M148.47,129.49c-1.73,14.48-3.45,28.97-5.18,43.45-1.32,5.65-3.16,13.92-5.07,23.98-4.42,23.35-5.73,38.27-8.33,61.12-4.08,35.82-6.11,53.72-8.55,66.64-2.03,10.73-7.15,36-6.42,61.35.03,1.14.16,5.05.56,10.24,1.33,17.04,2.23,28.56,7.2,38.72,3.79,7.73,9.96,12.81,22.29,22.96,2.59,2.13,8.77,7.09,30.95,20.94,6.74,4.2,15.65,9.66,27.01,16.32,22.51,13.19,34.79,20.33,51.21,27.46,2.82,1.22,5.61,2.51,8.44,3.71,8.44,3.6,26.22,10.83,30.05,17.45.59,1.01,1.12,2.14,1.12,2.14,1.03,2.15,1.76,4.34,2.48,7.54,1.02,4.57,1.47,8.84,1.69,11.82-.44,8.16-1.28,28.56,1.12,44.46.56,3.73,1.23,6.71,2.14,9.68,2.99,9.79,7.64,16.35,9.68,19.25,8.08,11.49,15.48,23.44,23.3,35.12,9.15,13.66,15.83,24.58,19.59,30.73,1.95,3.2,6.85,11.25,15.31,26,12.09,21.06,17.18,30.89,22.17,39.73,7.44,13.17,19.08,31.94,36.58,54.14,10.53,15.71,21.14,32.18,31.74,49.41,10.03,16.31,19.43,32.31,28.25,47.95,6.81,17.7,16.15,28.31,21.95,33.88,5.82,5.58,9.99,7.93,11.59,8.78,11.83,6.29,23.62,5.71,29.6,4.95,16.95-.37,30.7-.21,40.07,0,18.33.42,32.82,1.33,54.71,0,7.26-.44,9.07-.07,11.93-.9,10.84-3.16,15.75-11.71,30.28-34.11,9.56-14.74,14.34-22.11,20.6-30.84,10.6-14.79,12.43-15.42,20.04-26.11,12.54-17.63,13.24-23.89,25.1-44.12,10.35-17.67,11.82-16.32,29.6-42.66,9.86-14.6,10.43-16.54,33.2-53.47,22.47-36.43,33.7-54.65,35.91-57.63,17.48-23.61,30.81-35.97,35.34-60.22,1.56-8.33,1.58-15.41,1.35-20.15.04-17.22.07-34.44.11-51.66,2.12-1.59,5.12-3.78,8.79-6.3,6.15-4.23,15.93-10.6,30.28-18.12,13.75-7.21,27.44-13.06,54.82-24.76,3.32-1.42,4.88-2.08,7.43-3.26,12.78-5.97,22.28-12.26,32.19-19.36,22.61-16.2,33.92-24.3,39.96-33.99,5.63-9.04,8.13-17.67,9.34-23.3v-95.34c-2.48-9.24-5.88-23.16-8.78-40.41-1.29-7.65-1.92-12.66-3.38-23.98,0,0-3.4-26.53-8.1-62.58-1.04-7.98-2.45-26.45-6.98-50.2-4.05-21.24-6.9-35.69-11.93-36.02-6.91-.45-14.02,25.98-15.42,31.18-3.29,12.24-4.23,22.72-4.5,29.72-1.54,7.55-3.98,19.58-6.87,34.44-5.41,27.83-6.98,37.68-11.14,55.38-6.13,26.1-10.09,36.1-14.3,44.57-8.87,17.88-16.12,23.54-18.57,25.33-3.32,2.42-6.51,4.07-27.13,11.37-13.86,4.9-20.79,7.36-26.23,9-18.24,5.52-20.56,4.6-54.25,12.16-24.02,5.39-25.7,6.5-30.95,4.95-7.65-2.25-10.07-6.38-31.86-19.92-1.36-.84-7.3-4.54-10.47-6.3-9.58-5.34-25.67-10.82-52.57-8.1-42.07.97-76.55.56-100.4,0-2.96-.07-88.21-2.08-156.81,0-1.37.04-27.64.98-58.97,8.78-19.74,4.91-28.82,9.4-35.01,13.06-12.03,7.11-13.71,11.45-21.39,14.41-8.88,3.42-23.53,4.12-47.84-11.03-20.05-4.56-54.01-13.53-75.75-27.24-3.32-2.09-5.51-3.76-6.98-4.95-15.14-12.27-21.52-28.45-25.78-41.31-5.76-17.41-7.49-28.33-12.38-53.58-9.25-47.71-7.98-34.03-15.2-71.81-6.33-33.14-8.3-48.91-13.17-49.19-3.88-.22-7.68,9.51-10.47,18.69Z"/>
</svg>