<?xml version="1.0" encoding="UTF-8"?>
<svg id="Layer_1" xmlns="http://www.w3.org/2000/svg" version="1.1" viewBox="0 0 232 94">
  <!-- Generator: Adobe Illustrator 30.0.0, SVG Export Plug-In . SVG Version: 2.1.1 Build 123)  -->
  <defs>
    <style>
      .st0, .st1, .st2 {
        fill: #fff;
      }

      .st1 {
        stroke-width: 3px;
      }

      .st1, .st2 {
        stroke: #fff;
        stroke-miterlimit: 10;
      }

      .st2 {
        stroke-width: 2px;
      }
    </style>
  </defs>
  <g>
    <path class="st0" d="M92.24,18.25h-9.76v-6.73h27.55v6.73h-9.76v28.75h-8.02v-28.75h-.01Z"/>
    <path class="st0" d="M112.61,20h6.53l.58,4.72h.2c1.97-3.6,4.92-5.37,7.67-5.37,1.54,0,2.44.2,3.22.54l-1.33,6.91c-.96-.24-1.75-.44-2.91-.44-2.04,0-4.51,1.31-5.95,4.99v15.65h-8v-27h0Z"/>
    <path class="st0" d="M132.16,33.51c0-8.76,6.25-14.16,12.74-14.16,7.69,0,11.5,5.59,11.5,12.96,0,1.44-.18,2.88-.33,3.54h-16.15c.72,3.92,3.4,5.71,7,5.71,2.04,0,3.88-.62,5.84-1.77l2.65,4.82c-2.77,1.92-6.38,3.04-9.58,3.04-7.7,0-13.66-5.21-13.66-14.15h0ZM149.57,30.55c0-2.97-1.29-5.11-4.49-5.11-2.53,0-4.71,1.7-5.25,5.11h9.74Z"/>
    <path class="st0" d="M160.36,33.51c0-8.76,6.25-14.16,12.74-14.16,7.69,0,11.5,5.59,11.5,12.96,0,1.44-.18,2.88-.33,3.54h-16.15c.72,3.92,3.4,5.71,7,5.71,2.04,0,3.88-.62,5.84-1.77l2.65,4.82c-2.77,1.92-6.38,3.04-9.58,3.04-7.7,0-13.66-5.21-13.66-14.15h0ZM177.76,30.55c0-2.97-1.29-5.11-4.49-5.11-2.53,0-4.71,1.7-5.25,5.11h9.74Z"/>
    <path class="st0" d="M92.47,60.05h5.33c3.42,0,6.17,1.22,6.17,4.99s-2.79,5.26-6.08,5.26h-1.92v5.27h-3.51v-15.52h.01ZM97.69,67.52c1.93,0,2.84-.86,2.84-2.48s-1.04-2.21-2.94-2.21h-1.62v4.68h1.72Z"/>
    <path class="st0" d="M106.37,58.89h3.5v4.08l-.16,2.14c.89-.81,2.04-1.63,3.65-1.63,2.57,0,3.67,1.81,3.67,4.77v7.34h-3.5v-6.89c0-1.7-.46-2.23-1.47-2.23-.88,0-1.42.41-2.19,1.15v7.97h-3.5v-16.69h0Z"/>
    <path class="st0" d="M119.28,69.67c0-3.93,2.77-6.2,5.76-6.2s5.76,2.27,5.76,6.2-2.77,6.19-5.76,6.19-5.76-2.27-5.76-6.19ZM127.21,69.67c0-2.05-.72-3.37-2.17-3.37s-2.17,1.33-2.17,3.37.72,3.36,2.17,3.36,2.17-1.32,2.17-3.36Z"/>
    <path class="st0" d="M133.04,71.28v-4.77h-1.61v-2.61l1.81-.13.41-3.14h2.9v3.14h2.83v2.75h-2.83v4.73c0,1.34.61,1.88,1.53,1.88.39,0,.81-.11,1.12-.22l.55,2.54c-.63.2-1.48.43-2.63.43-2.92,0-4.08-1.84-4.08-4.58v-.02Z"/>
    <path class="st0" d="M140.57,69.67c0-3.93,2.77-6.2,5.76-6.2s5.76,2.27,5.76,6.2-2.77,6.19-5.76,6.19-5.76-2.27-5.76-6.19ZM148.5,69.67c0-2.05-.72-3.37-2.17-3.37s-2.17,1.33-2.17,3.37.72,3.36,2.17,3.36,2.17-1.32,2.17-3.36Z"/>
    <path class="st0" d="M153.75,77.61c0-.98.59-1.77,1.68-2.38v-.1c-.61-.41-1.08-1.03-1.08-2.01,0-.85.57-1.68,1.32-2.21v-.1c-.83-.58-1.59-1.68-1.59-3.07,0-2.84,2.34-4.28,4.89-4.28.66,0,1.3.1,1.83.29h4.32v2.55h-1.9c.22.35.4.94.4,1.56,0,2.72-2.07,3.97-4.65,3.97-.43,0-.92-.07-1.44-.23-.29.25-.41.46-.41.88,0,.58.48.87,1.77.87h1.92c2.9,0,4.51.89,4.51,3,0,2.46-2.56,4.24-6.61,4.24-2.75,0-4.94-.89-4.94-3l-.02.02ZM161.96,76.96c0-.75-.64-.92-1.8-.92h-1.23c-.81,0-1.27-.05-1.66-.15-.44.37-.64.73-.64,1.16,0,.9,1.04,1.36,2.62,1.36s2.7-.63,2.7-1.45h.01ZM160.58,67.75c0-1.26-.68-1.92-1.61-1.92s-1.61.66-1.61,1.92.69,1.97,1.61,1.97,1.61-.67,1.61-1.97Z"/>
    <path class="st0" d="M167.19,63.76h2.86l.25,2.07h.09c.86-1.58,2.15-2.35,3.36-2.35.68,0,1.07.09,1.41.24l-.58,3.02c-.42-.1-.77-.19-1.27-.19-.89,0-1.97.57-2.6,2.19v6.85h-3.5v-11.82h-.02Z"/>
    <path class="st0" d="M175.46,72.3c0-2.49,1.98-3.84,6.66-4.33-.07-1.03-.59-1.71-1.87-1.71-.99,0-1.98.42-3.13,1.07l-1.24-2.3c1.5-.92,3.19-1.56,5.05-1.56,3.02,0,4.69,1.73,4.69,5.35v6.76h-2.86l-.25-1.21h-.09c-1,.87-2.11,1.5-3.44,1.5-2.15,0-3.52-1.57-3.52-3.56h0ZM182.12,72.15v-2.06c-2.49.34-3.3,1.05-3.3,1.94,0,.76.52,1.13,1.36,1.13s1.32-.39,1.95-1.01h0Z"/>
    <path class="st0" d="M188.56,63.76h2.86l.25,1.16h.09c.93-.83,2.13-1.45,3.37-1.45,2.86,0,4.61,2.37,4.61,6.01,0,4.06-2.41,6.38-4.97,6.38-1.02,0-1.97-.45-2.82-1.23l.12,1.87v3.46h-3.5v-16.2h0ZM196.14,69.52c0-2.12-.66-3.18-2.05-3.18-.72,0-1.34.32-2.03,1.06v4.85c.64.55,1.29.75,1.89.75,1.22,0,2.2-1.03,2.2-3.48h0Z"/>
    <path class="st0" d="M202.01,58.89h3.5v4.08l-.16,2.14c.89-.81,2.04-1.63,3.65-1.63,2.57,0,3.67,1.81,3.67,4.77v7.34h-3.5v-6.89c0-1.7-.46-2.23-1.47-2.23-.88,0-1.42.41-2.19,1.15v7.97h-3.5v-16.69h0Z"/>
    <path class="st0" d="M215.25,79.96l.62-2.67c.22.06.54.15.79.15,1.15,0,1.76-.64,2.07-1.55l.18-.62-4.56-11.51h3.52l1.69,5.08c.34,1.07.62,2.19.93,3.35h.1c.26-1.12.53-2.24.82-3.35l1.43-5.08h3.35l-4.1,11.95c-1.12,2.96-2.38,4.49-5.16,4.49-.73,0-1.2-.1-1.68-.24Z"/>
  </g>
  <circle class="st0" cx="39.97" cy="29.01" r="20.42"/>
  <circle class="st0" cx="25.77" cy="43.2" r="14.2"/>
  <circle class="st0" cx="54.17" cy="43.2" r="14.2"/>
  <line class="st1" x1="39.97" y1="38.72" x2="39.97" y2="89.2"/>
  <line class="st2" x1="60.78" y1="38.8" x2="39.97" y2="60.05"/>
  <line class="st2" x1="39.97" y1="66.96" x2="18.73" y2="46.15"/>
</svg>